<svg xmlns="http://www.w3.org/2000/svg" xmlns:svg="http://www.w3.org/2000/svg" xmlns:xlink="http://www.w3.org/1999/xlink" id="svg3178" width="200" height="200" version="1.0"><defs id="defs3180"><linearGradient id="linearGradient3214"><stop style="stop-color:#fff;stop-opacity:1" id="stop3216" offset="0"/><stop id="stop3224" offset=".5" style="stop-color:#fff;stop-opacity:1"/><stop style="stop-color:#f8f8f8;stop-opacity:1" id="stop3218" offset="1"/></linearGradient><linearGradient id="linearGradient3173"><stop style="stop-color:silver;stop-opacity:1" id="stop3175" offset="0"/><stop style="stop-color:#aaa;stop-opacity:1" id="stop3177" offset="1"/></linearGradient><radialGradient id="radialGradient3191" cx="50" cy="35" r="10" fx="50" fy="35" gradientTransform="translate(-20,0)" gradientUnits="userSpaceOnUse" xlink:href="#linearGradient3173"/><radialGradient id="radialGradient3228" cx="29.829" cy="5.127" r="10" fx="29.829" fy="5.127" gradientTransform="matrix(0,1.5294118,-1.4438991,0,37.403286,-41.176471)" gradientUnits="userSpaceOnUse" xlink:href="#linearGradient3214"/></defs><metadata id="metadata3183"/><g id="layer1" style="display:none"><g id="g2407"><path id="path3169" d="M 40,10 A 10,10 0 1 1 20,10 A 10,10 0 1 1 40,10 z" transform="translate(0,40)" style="opacity:1;fill:#ddd;fill-opacity:1;stroke:none;stroke-width:2;stroke-linecap:round;stroke-linejoin:miter;stroke-miterlimit:4;stroke-dasharray:none;stroke-dashoffset:0;stroke-opacity:1"/><path id="path3171" d="M 28.808482,48.378933 C 28.822162,47.407662 29.23256,46.600547 30.217511,46.600547 C 30.942545,46.600547 31.380301,46.997265 31.380301,47.831737 C 31.380301,48.570451 30.915185,48.885089 30.381669,49.309165 C 29.834475,49.733242 29.273598,50.266759 29.191519,51.456908 L 29.191519,52.072503 L 31.038304,52.072503 L 31.038304,51.552668 C 31.161423,50.745555 31.790699,50.389877 32.378933,49.95212 C 32.967169,49.500684 33.528044,48.967167 33.528044,47.640219 C 33.528044,46.586868 32.707248,45 30.121751,45 C 28.12449,45 26.838578,46.422711 26.797538,48.378933 L 28.808482,48.378933 M 29,55 L 31.147743,55 L 31.147743,52.893297 L 29,52.893297 L 29,55" style="font-size:11px;font-style:normal;font-variant:normal;font-weight:700;font-stretch:normal;text-align:start;line-height:110.00000238%;writing-mode:lr-tb;text-anchor:start;fill:#fff;fill-opacity:1;stroke:none;stroke-width:2;stroke-linecap:round;stroke-linejoin:miter;stroke-miterlimit:4;stroke-dashoffset:0;stroke-opacity:1;font-family:Helvetica Neue;-inkscape-font-specification:Helvetica Neue Bold"/></g><g id="g2411"><rect id="rect3183" width="20" height="20" x="20" y="20" ry="9" style="opacity:1;fill:url(#radialGradient3191);fill-opacity:1;stroke:none;stroke-width:2;stroke-linecap:round;stroke-linejoin:miter;stroke-miterlimit:4;stroke-dasharray:none;stroke-dashoffset:0;stroke-opacity:1"/><path id="path3193" d="M 28.808482,29.378933 C 28.822162,28.407662 29.23256,27.600547 30.217511,27.600547 C 30.942545,27.600547 31.380301,27.997265 31.380301,28.831737 C 31.380301,29.570451 30.915185,29.885089 30.381669,30.309165 C 29.834475,30.733242 29.273598,31.266759 29.191519,32.456908 L 29.191519,33.072503 L 31.038304,33.072503 L 31.038304,32.552668 C 31.161423,31.745555 31.790699,31.389877 32.378933,30.95212 C 32.967169,30.500684 33.528044,29.967167 33.528044,28.640219 C 33.528044,27.586868 32.707248,26 30.121751,26 C 28.12449,26 26.838578,27.422711 26.797538,29.378933 L 28.808482,29.378933 M 29,36 L 31.147743,36 L 31.147743,33.893297 L 29,33.893297 L 29,36" style="font-size:11px;font-style:normal;font-variant:normal;font-weight:700;font-stretch:normal;text-align:start;line-height:110.00000238%;writing-mode:lr-tb;text-anchor:start;fill:#eee;fill-opacity:1;stroke:none;stroke-width:2;stroke-linecap:round;stroke-linejoin:miter;stroke-miterlimit:4;stroke-dashoffset:0;stroke-opacity:1;font-family:Helvetica Neue;-inkscape-font-specification:Helvetica Neue Bold"/><path style="font-size:11px;font-style:normal;font-variant:normal;font-weight:700;font-stretch:normal;text-align:start;line-height:110.00000238%;writing-mode:lr-tb;text-anchor:start;fill:#404040;fill-opacity:1;stroke:none;stroke-width:2;stroke-linecap:round;stroke-linejoin:miter;stroke-miterlimit:4;stroke-dashoffset:0;stroke-opacity:1;font-family:Helvetica Neue;-inkscape-font-specification:Helvetica Neue Bold" id="path3167" d="M 28.808482,28.378933 C 28.822162,27.407662 29.23256,26.600547 30.217511,26.600547 C 30.942545,26.600547 31.380301,26.997265 31.380301,27.831737 C 31.380301,28.570451 30.915185,28.885089 30.381669,29.309165 C 29.834475,29.733242 29.273598,30.266759 29.191519,31.456908 L 29.191519,32.072503 L 31.038304,32.072503 L 31.038304,31.552668 C 31.161423,30.745555 31.790699,30.389877 32.378933,29.95212 C 32.967169,29.500684 33.528044,28.967167 33.528044,27.640219 C 33.528044,26.586868 32.707248,25 30.121751,25 C 28.12449,25 26.838578,26.422711 26.797538,28.378933 L 28.808482,28.378933 M 29,35 L 31.147743,35 L 31.147743,32.893297 L 29,32.893297 L 29,35"/></g><g id="g2416"><path id="path3226" d="M 40,10 A 10,10 0 1 1 20,10 A 10,10 0 1 1 40,10 z" style="opacity:1;fill:url(#radialGradient3228);fill-opacity:1;stroke:none;stroke-width:2;stroke-linecap:round;stroke-linejoin:miter;stroke-miterlimit:4;stroke-dasharray:none;stroke-dashoffset:0;stroke-opacity:1"/><path style="font-size:11px;font-style:normal;font-variant:normal;font-weight:700;font-stretch:normal;text-align:start;line-height:110.00000238%;writing-mode:lr-tb;text-anchor:start;fill:#fff;fill-opacity:1;stroke:none;stroke-width:2;stroke-linecap:round;stroke-linejoin:miter;stroke-miterlimit:4;stroke-dashoffset:0;stroke-opacity:1;font-family:Helvetica Neue;-inkscape-font-specification:Helvetica Neue Bold" id="path3230" d="M 28.808482,9.3789329 C 28.822162,8.4076616 29.23256,7.6005471 30.217511,7.6005471 C 30.942545,7.6005471 31.380301,7.9972648 31.380301,8.8317372 C 31.380301,9.5704506 30.915185,9.8850892 30.381669,10.309165 C 29.834475,10.733242 29.273598,11.266759 29.191519,12.456908 L 29.191519,13.072503 L 31.038304,13.072503 L 31.038304,12.552668 C 31.161423,11.745555 31.790699,11.389877 32.378933,10.95212 C 32.967169,10.500684 33.528044,9.9671668 33.528044,8.6402188 C 33.528044,7.5868682 32.707248,5.9999999 30.121751,5.9999999 C 28.12449,5.9999999 26.838578,7.4227105 26.797538,9.3789329 L 28.808482,9.3789329 M 29,16 L 31.147743,16 L 31.147743,13.893297 L 29,13.893297 L 29,16"/><path id="text3160" d="M 28.808482,8.3789329 C 28.822162,7.4076616 29.23256,6.6005471 30.217511,6.6005471 C 30.942545,6.6005471 31.380301,6.9972648 31.380301,7.8317372 C 31.380301,8.5704506 30.915185,8.8850892 30.381669,9.3091654 C 29.834475,9.7332416 29.273598,10.266759 29.191519,11.456908 L 29.191519,12.072503 L 31.038304,12.072503 L 31.038304,11.552668 C 31.161423,10.745555 31.790699,10.389877 32.378933,9.9521203 C 32.967169,9.5006844 33.528044,8.9671668 33.528044,7.6402188 C 33.528044,6.5868682 32.707248,4.9999999 30.121751,4.9999999 C 28.12449,4.9999999 26.838578,6.4227105 26.797538,8.3789329 L 28.808482,8.3789329 M 29,15 L 31.147743,15 L 31.147743,12.893297 L 29,12.893297 L 29,15" style="font-size:11px;font-style:normal;font-variant:normal;font-weight:700;font-stretch:normal;text-align:start;line-height:110.00000238%;writing-mode:lr-tb;text-anchor:start;fill:#666;fill-opacity:1;stroke:none;stroke-width:2;stroke-linecap:round;stroke-linejoin:miter;stroke-miterlimit:4;stroke-dashoffset:0;stroke-opacity:1;font-family:Helvetica Neue;-inkscape-font-specification:Helvetica Neue Bold"/></g><g id="g2432"><path style="opacity:1;fill:#fff;fill-opacity:1;stroke:none;stroke-width:2;stroke-linecap:round;stroke-linejoin:miter;stroke-miterlimit:4;stroke-dasharray:none;stroke-dashoffset:0;stroke-opacity:1" id="path3173" d="M 194,187 L 195,187 L 198,191 L 195,195 L 194,195 L 197,191"/><path id="path2385" d="M 194,186 L 195,186 L 198,190 L 195,194 L 194,194 L 197,190" style="opacity:1;fill:silver;fill-opacity:1;stroke:none;stroke-width:2;stroke-linecap:round;stroke-linejoin:miter;stroke-miterlimit:4;stroke-dasharray:none;stroke-dashoffset:0;stroke-opacity:1"/></g><g id="g2421"><path id="rect3190" d="M 3,0 C 1.338,0 -2.6111925e-18,1.338 0,3 L 0,17 C 0,18.662 1.338,20 3,20 L 20,20 L 20,0 L 3,0 z" style="fill:#bbb;fill-opacity:1;stroke:none;stroke-width:2;stroke-linecap:round;stroke-linejoin:miter;stroke-miterlimit:4;stroke-dasharray:none;stroke-dashoffset:0;stroke-opacity:1"/><rect id="rect3704" width="2" height="8" x="9" y="6" ry=".5" style="fill:#fff;fill-opacity:1;stroke:none;stroke-width:2;stroke-linecap:round;stroke-linejoin:miter;stroke-miterlimit:4;stroke-dasharray:none;stroke-dashoffset:0;stroke-opacity:1"/><rect style="fill:#fff;fill-opacity:1;stroke:none;stroke-width:2;stroke-linecap:round;stroke-linejoin:miter;stroke-miterlimit:4;stroke-dasharray:none;stroke-dashoffset:0;stroke-opacity:1" id="rect3706" width="2" height="8" x="9" y="-14" ry=".5" transform="matrix(0,1,-1,0,0,0)"/><path id="path3190" d="M 0,16 L 0,17 C 0,18.662 1.338,20 3,20 L 20,20 L 20,19 L 3,19 C 1.338,19 0,17.662 0,16 z" style="fill:#aaa;fill-opacity:1;stroke:none;stroke-width:2;stroke-linecap:round;stroke-linejoin:miter;stroke-miterlimit:4;stroke-dasharray:none;stroke-dashoffset:0;stroke-opacity:1"/></g><g id="g2427"><path style="fill:#bbb;fill-opacity:1;stroke:none;stroke-width:2;stroke-linecap:round;stroke-linejoin:miter;stroke-miterlimit:4;stroke-dasharray:none;stroke-dashoffset:0;stroke-opacity:1" id="path3715" d="M 3,20 C 1.338,20 -2.6111925e-18,21.338 0,23 L 0,37 C 0,38.662 1.338,40 3,40 L 20,40 L 20,20 L 3,20 z"/><rect id="rect3719" width="2" height="8" x="29" y="-14" ry=".5" transform="matrix(0,1,-1,0,0,0)" style="fill:#fff;fill-opacity:1;stroke:none;stroke-width:2;stroke-linecap:round;stroke-linejoin:miter;stroke-miterlimit:4;stroke-dasharray:none;stroke-dashoffset:0;stroke-opacity:1"/><path id="path3195" d="M 4.4408921e-16,36 L 4.4408921e-16,37 C 4.4408921e-16,38.662 1.338,40 3,40 L 20,40 L 20,39 L 3,39 C 1.338,39 4.4408921e-16,37.662 4.4408921e-16,36 z" style="fill:#aaa;fill-opacity:1;stroke:none;stroke-width:2;stroke-linecap:round;stroke-linejoin:miter;stroke-miterlimit:4;stroke-dasharray:none;stroke-dashoffset:0;stroke-opacity:1"/></g></g><g id="layer2" style="display:inline"><use id="use2436" width="200" height="200" x="0" y="0" xlink:href="#g2407"/><use id="use2438" width="200" height="200" x="0" y="0" xlink:href="#g2411"/><use id="use2440" width="200" height="200" x="0" y="0" xlink:href="#g2416"/><use id="use2442" width="200" height="200" x="0" y="0" transform="matrix(-1,0,0,1,20,0)" xlink:href="#g2421"/><use id="use2444" width="200" height="200" x="0" y="0" transform="matrix(-1,0,0,1,20,0)" xlink:href="#g2427"/><use style="display:inline" id="use2451" width="200" height="200" x="0" y="0" transform="matrix(-1,0,0,1,200,0)" xlink:href="#g2432"/></g></svg>