<svg xmlns="http://www.w3.org/2000/svg" xmlns:svg="http://www.w3.org/2000/svg" xmlns:xlink="http://www.w3.org/1999/xlink" id="svg3246" width="60" height="60" version="1.0"><defs id="defs3248"><linearGradient id="linearGradient4007"><stop style="stop-color:#cacaca;stop-opacity:1" id="stop4009" offset="0"/><stop style="stop-color:#cacaca;stop-opacity:0" id="stop4011" offset="1"/></linearGradient><linearGradient id="linearGradient4056"><stop style="stop-color:#606060;stop-opacity:1" id="stop4058" offset="0"/><stop style="stop-color:#606060;stop-opacity:0" id="stop4060" offset="1"/></linearGradient><linearGradient id="linearGradient3975"><stop style="stop-color:#a0a0a0;stop-opacity:1" id="stop3977" offset="0"/><stop style="stop-color:#a0a0a0;stop-opacity:0" id="stop3979" offset="1"/></linearGradient><linearGradient id="linearGradient8815"><stop style="stop-color:#f4f4f4;stop-opacity:1" id="stop8817" offset="0"/><stop id="stop3960" offset=".5" style="stop-color:#f4f4f4;stop-opacity:1"/><stop style="stop-color:silver;stop-opacity:1" id="stop8819" offset="1"/></linearGradient><linearGradient id="linearGradient6276"><stop style="stop-color:gray;stop-opacity:1" id="stop6278" offset="0"/><stop style="stop-color:silver;stop-opacity:1" id="stop6280" offset="1"/></linearGradient><radialGradient id="radialGradient3292" cx="1045" cy="5.867" r="15" fx="1045" fy="5.867" gradientTransform="matrix(1.7857193,3.4719081e-6,-3.1333333e-6,1.6115789,-821.07669,-2.4273736)" gradientUnits="userSpaceOnUse" xlink:href="#linearGradient8815"/><linearGradient id="linearGradient3294" x1="1030" x2="1030" y1="15" y2="30" gradientUnits="userSpaceOnUse" xlink:href="#linearGradient6276"/><linearGradient id="linearGradient3296" x1="1030" x2="1030" y1="15" y2="30" gradientUnits="userSpaceOnUse" xlink:href="#linearGradient6276"/><linearGradient id="linearGradient3298" x1="1030" x2="1030" y1="15" y2="30" gradientUnits="userSpaceOnUse" xlink:href="#linearGradient6276"/><linearGradient id="linearGradient3300" x1="274" x2="274" y1="22.5" y2="29" gradientUnits="userSpaceOnUse" xlink:href="#linearGradient3975"/><radialGradient id="radialGradient3302" cx="285" cy="16.859" r="2.281" fx="285" fy="16.859" gradientTransform="matrix(-1.7534281,1.9073755e-8,-1.4305278e-8,-1.3150685,784.72701,39.171228)" gradientUnits="userSpaceOnUse" xlink:href="#linearGradient4056"/><linearGradient id="linearGradient3304" x1="288.5" x2="288.5" y1="6.5" y2="14.5" gradientUnits="userSpaceOnUse" xlink:href="#linearGradient4007"/><radialGradient id="radialGradient3330" cx="1045" cy="5.867" r="15" fx="1045" fy="5.867" gradientTransform="matrix(1.7857193,3.4719081e-6,-3.1333333e-6,1.6115789,-821.07669,-2.4273736)" gradientUnits="userSpaceOnUse" xlink:href="#linearGradient8815"/><linearGradient id="linearGradient3332" x1="1030" x2="1030" y1="15" y2="30" gradientUnits="userSpaceOnUse" xlink:href="#linearGradient6276"/><linearGradient id="linearGradient3334" x1="1030" x2="1030" y1="15" y2="30" gradientUnits="userSpaceOnUse" xlink:href="#linearGradient6276"/><linearGradient id="linearGradient3336" x1="1030" x2="1030" y1="15" y2="30" gradientUnits="userSpaceOnUse" xlink:href="#linearGradient6276"/><linearGradient id="linearGradient3338" x1="274" x2="274" y1="22.5" y2="29" gradientUnits="userSpaceOnUse" xlink:href="#linearGradient3975"/><radialGradient id="radialGradient3340" cx="285" cy="16.859" r="2.281" fx="285" fy="16.859" gradientTransform="matrix(-1.7534281,1.9073755e-8,-1.4305278e-8,-1.3150685,784.72701,39.171228)" gradientUnits="userSpaceOnUse" xlink:href="#linearGradient4056"/><linearGradient id="linearGradient3342" x1="288.5" x2="288.5" y1="6.5" y2="14.5" gradientUnits="userSpaceOnUse" xlink:href="#linearGradient4007"/><radialGradient id="radialGradient3356" cx="1045" cy="5.867" r="15" fx="1045" fy="5.867" gradientTransform="matrix(1.7857193,3.4719081e-6,-3.1333333e-6,1.6115789,-821.07669,-2.4273736)" gradientUnits="userSpaceOnUse" xlink:href="#linearGradient8815"/><linearGradient id="linearGradient3358" x1="1030" x2="1030" y1="15" y2="30" gradientUnits="userSpaceOnUse" xlink:href="#linearGradient6276"/><linearGradient id="linearGradient3360" x1="1030" x2="1030" y1="15" y2="30" gradientUnits="userSpaceOnUse" xlink:href="#linearGradient6276"/><linearGradient id="linearGradient3362" x1="1030" x2="1030" y1="15" y2="30" gradientUnits="userSpaceOnUse" xlink:href="#linearGradient6276"/><linearGradient id="linearGradient3364" x1="274" x2="274" y1="22.5" y2="29" gradientUnits="userSpaceOnUse" xlink:href="#linearGradient3975"/><radialGradient id="radialGradient3366" cx="285" cy="16.859" r="2.281" fx="285" fy="16.859" gradientTransform="matrix(-1.7534281,1.9073755e-8,-1.4305278e-8,-1.3150685,784.72701,39.171228)" gradientUnits="userSpaceOnUse" xlink:href="#linearGradient4056"/><linearGradient id="linearGradient3368" x1="288.5" x2="288.5" y1="6.5" y2="14.5" gradientUnits="userSpaceOnUse" xlink:href="#linearGradient4007"/></defs><metadata id="metadata3251"/><g id="layer1"><g id="use4419" transform="translate(665.71429,-574.28573)" style="display:inline"><rect style="fill:#c2c2c2;fill-opacity:1;fill-rule:nonzero;stroke:none;stroke-width:2;stroke-linecap:butt;stroke-miterlimit:4;stroke-dasharray:none;stroke-opacity:1;display:inline" id="rect3308" width="60" height="60" x="300" y="0"/><g id="g3310" transform="matrix(1.8666667,0,0,1.8666667,-1620.6667,2.00001)" style="fill:url(#linearGradient3336);fill-opacity:1;display:inline"><g style="fill:url(#linearGradient3334);fill-opacity:1" id="g3312"><rect id="rect3314" width="30" height="30" x="1030" y="0" style="opacity:1;fill:url(#radialGradient3330);fill-opacity:1;fill-rule:nonzero;stroke:none;stroke-width:2;stroke-linecap:butt;stroke-miterlimit:4;stroke-dasharray:none;stroke-opacity:1;display:inline"/></g></g><g style="display:inline" id="g3318" transform="matrix(2,0,0,2,-240,2)"><path id="path3320" d="M 283.5,16 L 282.5,20 L 282,20 C 282,20 279,21 279,21 C 276,22 274,29 274,29 L 296,29 C 296,29 294,22 291,21 L 288,20 L 287.5,20 L 286.5,16 L 283.5,16 z" style="fill:url(#linearGradient3338);fill-opacity:1;fill-rule:nonzero;stroke:none;stroke-width:2;stroke-linecap:butt;stroke-linejoin:round;marker:none;marker-start:none;marker-mid:none;marker-end:none;stroke-miterlimit:4;stroke-dasharray:none;stroke-dashoffset:0;stroke-opacity:1;visibility:visible;display:inline;overflow:visible;enable-background:accumulate"/><path id="path3322" d="M 281.5,20 L 282.5,20 C 282.5,20 283,22 285,22 C 287,22 287.5,20 287.5,20 L 288.5,20 C 288.5,20 288,23 285,23 C 282,23 281.5,20 281.5,20 L 281.5,20 z" style="fill:#dfdfdf;fill-opacity:1;fill-rule:nonzero;stroke:none;stroke-width:2;stroke-linecap:butt;stroke-linejoin:round;marker:none;marker-start:none;marker-mid:none;marker-end:none;stroke-miterlimit:4;stroke-dasharray:none;stroke-dashoffset:0;stroke-opacity:1;visibility:visible;display:inline;overflow:visible;enable-background:accumulate"/><path id="path3324" d="M 283.5,16 L 282.71875,19.15625 C 283.36006,19.6854 284.1375,20 285,20 C 285.8625,20 286.63994,19.6854 287.28125,19.15625 L 286.5,16 L 283.5,16 z" style="fill:url(#radialGradient3340);fill-opacity:1;fill-rule:nonzero;stroke:none;stroke-width:2;stroke-linecap:butt;stroke-linejoin:round;marker:none;marker-start:none;marker-mid:none;marker-end:none;stroke-miterlimit:4;stroke-dashoffset:0;stroke-opacity:1;visibility:visible;display:inline;overflow:visible;enable-background:accumulate"/><path id="path3326" d="M 289.50001,11.5 C 289.50001,14.812 287.76001,18 285,18 C 282.24,18 280.5,14.812 280.5,11.5 C 280.5,8.188 282.24,6 285,6 C 287.76001,6 289.50001,8.188 289.50001,11.5 z" style="fill:#a0a0a0;fill-opacity:1;fill-rule:nonzero;stroke:none;stroke-width:2;stroke-linecap:butt;stroke-linejoin:round;marker:none;marker-start:none;marker-mid:none;marker-end:none;stroke-miterlimit:4;stroke-dashoffset:0;stroke-opacity:1;visibility:visible;display:inline;overflow:visible;enable-background:accumulate"/><path id="path3328" d="M 288,10.5 A 3.5,3.5 0 1 1 281,10.5 A 3.5,3.5 0 1 1 288,10.5 z" transform="matrix(0.8571417,0,0,1,41.14317,0)" style="opacity:1;fill:url(#linearGradient3342);fill-opacity:1;fill-rule:nonzero;stroke:none;stroke-width:2;stroke-linecap:butt;stroke-linejoin:round;marker:none;marker-start:none;marker-mid:none;marker-end:none;stroke-miterlimit:4;stroke-dasharray:none;stroke-dashoffset:0;stroke-opacity:1;visibility:visible;display:inline;overflow:visible;enable-background:accumulate"/></g></g><g style="display:inline" id="g4206" transform="translate(-300,0)"><rect id="rect4371" width="60" height="60" x="300" y="0" style="fill:#c2c2c2;fill-opacity:1;fill-rule:nonzero;stroke:none;stroke-width:2;stroke-linecap:butt;stroke-miterlimit:4;stroke-dasharray:none;stroke-opacity:1;display:inline"/><g style="fill:url(#linearGradient3362);fill-opacity:1;display:inline" id="g4031" transform="matrix(1.8666667,0,0,1.8666667,-1620.6667,2.00001)"><g id="g4033" style="fill:url(#linearGradient3360);fill-opacity:1"><rect style="opacity:1;fill:url(#radialGradient3356);fill-opacity:1;fill-rule:nonzero;stroke:none;stroke-width:2;stroke-linecap:butt;stroke-miterlimit:4;stroke-dasharray:none;stroke-opacity:1;display:inline" id="rect4035" width="30" height="30" x="1030" y="0"/></g></g><g id="g4073" transform="matrix(2,0,0,2,-240,2)" style="display:inline"><path style="fill:url(#linearGradient3364);fill-opacity:1;fill-rule:nonzero;stroke:none;stroke-width:2;stroke-linecap:butt;stroke-linejoin:round;marker:none;marker-start:none;marker-mid:none;marker-end:none;stroke-miterlimit:4;stroke-dasharray:none;stroke-dashoffset:0;stroke-opacity:1;visibility:visible;display:inline;overflow:visible;enable-background:accumulate" id="path4075" d="M 283.5,16 L 282.5,20 L 282,20 C 282,20 279,21 279,21 C 276,22 274,29 274,29 L 296,29 C 296,29 294,22 291,21 L 288,20 L 287.5,20 L 286.5,16 L 283.5,16 z"/><path style="fill:#dfdfdf;fill-opacity:1;fill-rule:nonzero;stroke:none;stroke-width:2;stroke-linecap:butt;stroke-linejoin:round;marker:none;marker-start:none;marker-mid:none;marker-end:none;stroke-miterlimit:4;stroke-dasharray:none;stroke-dashoffset:0;stroke-opacity:1;visibility:visible;display:inline;overflow:visible;enable-background:accumulate" id="path4077" d="M 281.5,20 L 282.5,20 C 282.5,20 283,22 285,22 C 287,22 287.5,20 287.5,20 L 288.5,20 C 288.5,20 288,23 285,23 C 282,23 281.5,20 281.5,20 L 281.5,20 z"/><path style="fill:url(#radialGradient3366);fill-opacity:1;fill-rule:nonzero;stroke:none;stroke-width:2;stroke-linecap:butt;stroke-linejoin:round;marker:none;marker-start:none;marker-mid:none;marker-end:none;stroke-miterlimit:4;stroke-dashoffset:0;stroke-opacity:1;visibility:visible;display:inline;overflow:visible;enable-background:accumulate" id="path4079" d="M 283.5,16 L 282.71875,19.15625 C 283.36006,19.6854 284.1375,20 285,20 C 285.8625,20 286.63994,19.6854 287.28125,19.15625 L 286.5,16 L 283.5,16 z"/><path style="fill:#a0a0a0;fill-opacity:1;fill-rule:nonzero;stroke:none;stroke-width:2;stroke-linecap:butt;stroke-linejoin:round;marker:none;marker-start:none;marker-mid:none;marker-end:none;stroke-miterlimit:4;stroke-dashoffset:0;stroke-opacity:1;visibility:visible;display:inline;overflow:visible;enable-background:accumulate" id="path4081" d="M 289.50001,11.5 C 289.50001,14.812 287.76001,18 285,18 C 282.24,18 280.5,14.812 280.5,11.5 C 280.5,8.188 282.24,6 285,6 C 287.76001,6 289.50001,8.188 289.50001,11.5 z"/><path style="opacity:1;fill:url(#linearGradient3368);fill-opacity:1;fill-rule:nonzero;stroke:none;stroke-width:2;stroke-linecap:butt;stroke-linejoin:round;marker:none;marker-start:none;marker-mid:none;marker-end:none;stroke-miterlimit:4;stroke-dasharray:none;stroke-dashoffset:0;stroke-opacity:1;visibility:visible;display:inline;overflow:visible;enable-background:accumulate" id="path4083" d="M 288,10.5 A 3.5,3.5 0 1 1 281,10.5 A 3.5,3.5 0 1 1 288,10.5 z" transform="matrix(0.8571417,0,0,1,41.14317,0)"/></g></g></g></svg>